<svg enable-background="new 0 0 180 180" viewBox="0 0 180 180" xmlns="http://www.w3.org/2000/svg"><path d="m26.4 153.4c-35.1-35.1-35.1-92 0-127.1s92.1-35.1 127.3 0 35.1 92 0 127.1-92.2 35.1-127.3 0z" fill="#122a68"/><path d="m73.1 61.3h32.4v9.5h-32.4z" fill="#125b84"/><path d="m152.5 153.9c-3 3-6.2 5.7-9.5 8.2v-61.6h-13.1v69.7c-3.1 1.6-6.3 2.9-9.5 4.1v-94h-62.2v94c-3.2-1.2-6.4-2.6-9.5-4.1v-69.7h-12.4v62c35.2 25.9 85.1 23 117-8.8" fill="#125b84"/><path d="m152.6 95.7c0-2.6-2.1-4.8-4.8-4.8h-17.9v-15.4c0-2.6-2.1-4.8-4.8-4.8h-10.1v-14.2c0-2.6-2.1-4.8-4.8-4.8h-16.1v-30c0-2.6-2.1-4.8-4.8-4.8s-4.8 2.1-4.8 4.8v30h-16.1c-2.6 0-4.8 2.1-4.8 4.8v14.3h-10.1c-2.6 0-4.8 2.1-4.8 4.8v15.4h-17.1c-2.6 0-4.8 2.1-4.8 4.8v58.8c3 2.9 6.2 5.6 9.5 8 0 0 0 0 0-.1v-62h12.4v69.7c3.1 1.6 6.3 2.9 9.5 4.1v-94h62.1v94c3.2-1.2 6.4-2.6 9.5-4.1v-69.7h13.2v61.6c3.3-2.5 6.5-5.2 9.5-8.2v-58.2zm-47.1-24.9h-32.4v-9.5h32.4z" fill="#fff"/></svg>